<?xml version="1.0" encoding="UTF-8" standalone="no"?>
<!-- Created with Inkscape (http://www.inkscape.org/) -->

<svg
   width="6.065764mm"
   height="4.9419947mm"
   viewBox="0 0 6.065764 4.9419947"
   version="1.1"
   id="svg5148"
   inkscape:version="1.1.2 (0a00cf5339, 2022-02-04)"
   sodipodi:docname="cv-paper.svg"
   xmlns:inkscape="http://www.inkscape.org/namespaces/inkscape"
   xmlns:sodipodi="http://sodipodi.sourceforge.net/DTD/sodipodi-0.dtd"
   xmlns="http://www.w3.org/2000/svg"
   xmlns:svg="http://www.w3.org/2000/svg">
  <sodipodi:namedview
     id="namedview5150"
     pagecolor="#ffffff"
     bordercolor="#666666"
     borderopacity="1.0"
     inkscape:pageshadow="2"
     inkscape:pageopacity="0.0"
     inkscape:pagecheckerboard="0"
     inkscape:document-units="mm"
     showgrid="false"
     showguides="true"
     inkscape:guide-bbox="true"
     fit-margin-top="0"
     fit-margin-left="0"
     fit-margin-right="0"
     fit-margin-bottom="0"
     inkscape:zoom="10.90404"
     inkscape:cx="12.655859"
     inkscape:cy="10.775822"
     inkscape:window-width="1920"
     inkscape:window-height="1009"
     inkscape:window-x="0"
     inkscape:window-y="0"
     inkscape:window-maximized="1"
     inkscape:current-layer="layer1" />
  <defs
     id="defs5145" />
  <g
     inkscape:label="Layer 1"
     inkscape:groupmode="layer"
     id="layer1"
     transform="translate(-33.734338,-49.356204)">
    <path
       id="path5518"
       style="fill:#cccccc;stroke:#ffffff;stroke-width:0.529167;stroke-linecap:round;stroke-linejoin:round;stroke-miterlimit:4;stroke-dasharray:none;stroke-opacity:1;paint-order:stroke markers fill"
       d="m 34.482381,49.620977 v 4.320247 h 4.569489 c 0.0042,0 0.0085,-5.3e-5 0.01261,-2.21e-4 0.0042,-1.66e-4 0.0083,-3.88e-4 0.01238,-7.25e-4 0.0041,-2.77e-4 0.0081,-6.54e-4 0.01215,-0.0012 0.004,-4.43e-4 0.008,-9.75e-4 0.01196,-0.0016 0.0039,-5.81e-4 0.0079,-0.0013 0.01174,-0.0021 0.0039,-7.64e-4 0.0077,-0.0016 0.01153,-0.0025 0.0038,-9.03e-4 0.0076,-0.0019 0.01132,-0.0029 0.0037,-10e-4 0.0074,-0.0022 0.01111,-0.0033 0.0037,-0.0012 0.0073,-0.0024 0.01089,-0.0038 0.0036,-0.0013 0.0072,-0.0027 0.0107,-0.0042 0.0035,-0.0015 0.007,-0.003 0.01051,-0.0045 0.0035,-0.0016 0.0069,-0.0033 0.0103,-0.005 0.0034,-0.0017 0.0068,-0.0035 0.01011,-0.0053 0.0033,-0.0018 0.0066,-0.0037 0.0099,-0.0057 0.0033,-0.002 0.0065,-0.004 0.0097,-0.0061 0.0032,-0.0021 0.0064,-0.0043 0.0095,-0.0065 0.0031,-0.0022 0.0062,-0.0045 0.0093,-0.0068 0.0031,-0.0023 0.0061,-0.0047 0.0092,-0.0071 0.003,-0.0024 0.006,-0.0049 0.009,-0.0075 0.003,-0.0026 0.0059,-0.0052 0.0088,-0.0078 0.0029,-0.0027 0.0058,-0.0054 0.0086,-0.0081 0.0028,-0.0028 0.0056,-0.0056 0.0084,-0.0085 0.0028,-0.0029 0.0055,-0.0058 0.0082,-0.0088 0.0027,-0.003 0.0054,-0.006 0.008,-0.0091 0.0027,-0.0031 0.0053,-0.0062 0.0079,-0.0094 0.0026,-0.0032 0.0052,-0.0064 0.0077,-0.0097 0.0025,-0.0033 0.0051,-0.0066 0.0076,-0.0099 0.0025,-0.0034 0.0049,-0.0068 0.0074,-0.01021 0.0024,-0.0034 0.0048,-0.0069 0.0072,-0.01048 0.0024,-0.0035 0.0047,-0.0071 0.007,-0.01076 0.0023,-0.0036 0.0046,-0.0073 0.0069,-0.01099 0.0023,-0.0037 0.0045,-0.0074 0.0067,-0.01124 0.0022,-0.0038 0.0044,-0.0076 0.0066,-0.01146 0.0022,-0.0039 0.0043,-0.0078 0.0064,-0.01171 0.0021,-0.0039 0.0042,-0.0079 0.0062,-0.01193 0.0021,-0.004 0.0041,-0.008 0.0061,-0.01213 0.002,-0.0041 0.004,-0.0082 0.0059,-0.01235 0.002,-0.0042 0.0039,-0.0083 0.0058,-0.01255 0.0019,-0.0042 0.0038,-0.0084 0.0056,-0.01271 0.0019,-0.0043 0.0037,-0.0086 0.0055,-0.01294 0.0018,-0.0043 0.0036,-0.0087 0.0054,-0.0131 0.0018,-0.0044 0.0035,-0.0088 0.0052,-0.01327 0.0017,-0.0044 0.0034,-0.0089 0.0051,-0.01341 0.0017,-0.0045 0.0033,-0.0091 0.0049,-0.01361 0.0016,-0.0046 0.0032,-0.0091 0.0048,-0.01372 0.0016,-0.0046 0.0031,-0.0092 0.0047,-0.01389 0.0015,-0.0046 0.003,-0.0093 0.0045,-0.014 0.0015,-0.0047 0.0029,-0.0094 0.0044,-0.01414 0.0014,-0.0047 0.0029,-0.0095 0.0043,-0.01425 0.0014,-0.0048 0.0028,-0.0096 0.0041,-0.01439 0.0027,-0.0096 0.0053,-0.01929 0.0079,-0.02902 0.0025,-0.0097 0.005,-0.01954 0.0074,-0.02939 0.0024,-0.0098 0.0047,-0.01973 0.0069,-0.02967 0.0022,-0.0099 0.0044,-0.01991 0.0065,-0.02992 0.0021,-0.01001 0.0041,-0.02003 0.006,-0.03008 0.0019,-0.01005 0.0038,-0.02014 0.0056,-0.03022 0.0018,-0.01008 0.0035,-0.02018 0.0052,-0.03028 0.0017,-0.01009 0.0033,-0.02017 0.0048,-0.03025 0.0015,-0.01008 0.003,-0.02017 0.0044,-0.03022 0.0014,-0.01006 0.0028,-0.02008 0.004,-0.03008 0.0013,-0.01 0.0025,-0.01998 0.0037,-0.02992 0.0012,-0.0099 0.0023,-0.01985 0.0034,-0.02969 0.0011,-0.0098 0.0021,-0.01965 0.003,-0.02939 9.53e-4,-0.0097 0.0019,-0.01942 0.0027,-0.02903 8.52e-4,-0.0096 0.0017,-0.01914 0.0024,-0.02861 7.59e-4,-0.0095 0.0015,-0.01884 0.0021,-0.02813 6.7e-4,-0.0093 0.0013,-0.01852 0.0019,-0.02763 5.87e-4,-0.0091 0.0011,-0.01812 0.0016,-0.02702 4.98e-4,-0.0089 9.91e-4,-0.01767 0.0014,-0.02635 4.43e-4,-0.0087 8.19e-4,-0.01725 0.0012,-0.02568 3.88e-4,-0.0084 7.09e-4,-0.01671 9.97e-4,-0.02487 2.77e-4,-0.0075 5.54e-4,-0.01489 7.42e-4,-0.02217 v -0.226967 -3.028264 z" />
    <path
       id="path6232"
       style="fill:#4d4d4d;stroke:#ffffff;stroke-width:0.547599;stroke-linecap:round;stroke-linejoin:round;stroke-miterlimit:4;stroke-dasharray:none;stroke-opacity:1;paint-order:stroke markers fill"
       d="m 34.008138,52.966431 v 0.185787 c 2.26e-4,0.0059 4.63e-4,0.01199 7.4e-4,0.01814 2.98e-4,0.0067 6.32e-4,0.01346 9.96e-4,0.02036 3.64e-4,0.0069 7.52e-4,0.01392 0.0012,0.02102 4.31e-4,0.0071 9.13e-4,0.01428 0.0014,0.02157 5.08e-4,0.0073 9.97e-4,0.01466 0.0016,0.02212 5.84e-4,0.0074 0.0012,0.01501 0.0019,0.02262 6.69e-4,0.0076 0.0014,0.01528 0.0021,0.02303 7.58e-4,0.0077 0.0016,0.01555 0.0024,0.02342 8.53e-4,0.0078 0.0018,0.01579 0.0027,0.02376 9.52e-4,0.008 0.002,0.01599 0.003,0.02405 0.0011,0.0081 0.0022,0.01618 0.0034,0.02431 0.0012,0.0082 0.0024,0.0163 0.0037,0.02449 0.0013,0.0082 0.0026,0.0164 0.004,0.02462 0.0014,0.0083 0.0029,0.01649 0.0044,0.02474 0.0015,0.0083 0.0031,0.0165 0.0048,0.02476 0.0017,0.0083 0.0034,0.01653 0.0052,0.02479 0.0018,0.0083 0.0037,0.01651 0.0056,0.02474 0.0019,0.0083 0.0039,0.01643 0.006,0.02462 0.0021,0.0082 0.0042,0.01636 0.0065,0.02449 0.0022,0.0082 0.0045,0.01622 0.0069,0.02428 0.0024,0.0081 0.0048,0.01609 0.0074,0.02405 0.0025,0.008 0.0052,0.0159 0.0079,0.02376 0.0014,0.004 0.0027,0.0078 0.0041,0.01178 0.0014,0.0039 0.0028,0.0077 0.0043,0.01166 0.0014,0.0039 0.0029,0.0077 0.0044,0.01158 0.0015,0.0039 0.003,0.0076 0.0045,0.01146 0.0015,0.0038 0.0031,0.0076 0.0046,0.01137 0.0016,0.0038 0.0032,0.0075 0.0048,0.01123 0.0016,0.0038 0.0033,0.0074 0.0049,0.01114 0.0017,0.0037 0.0033,0.0073 0.0051,0.01098 0.0017,0.0037 0.0034,0.0073 0.0052,0.01087 0.0018,0.0035 0.0035,0.0072 0.0054,0.01075 0.0018,0.0035 0.0036,0.0071 0.0055,0.01064 0.0019,0.0035 0.0037,0.007 0.0056,0.01043 0.0019,0.0034 0.0038,0.0069 0.0058,0.01032 0.002,0.0034 0.0039,0.0068 0.0059,0.0101 0.002,0.0033 0.004,0.0067 0.0061,0.0099 0.0021,0.0033 0.0041,0.0066 0.0062,0.0098 0.0021,0.0032 0.0042,0.0064 0.0064,0.0096 0.0022,0.0031 0.0044,0.0062 0.0066,0.0093 0.0022,0.0031 0.0044,0.0061 0.0067,0.0092 0.0023,0.003 0.0046,0.006 0.0069,0.009 0.0023,0.003 0.0047,0.0059 0.007,0.0088 0.0024,0.0029 0.0048,0.0058 0.0072,0.0086 0.0024,0.0028 0.0049,0.0056 0.0074,0.0084 0.0025,0.0028 0.005,0.0055 0.0076,0.0082 0.0025,0.0027 0.0051,0.0053 0.0077,0.008 0.0026,0.0026 0.0052,0.0052 0.0079,0.0076 0.0027,0.0025 0.0053,0.0051 0.008,0.0074 0.0027,0.0025 0.0055,0.0048 0.0082,0.0072 0.0028,0.0024 0.0056,0.0046 0.0084,0.007 0.0028,0.0023 0.0057,0.0045 0.0086,0.0067 0.0029,0.0022 0.0058,0.0043 0.0088,0.0064 0.003,0.002 0.0059,0.0041 0.009,0.0061 0.003,0.002 0.0061,0.004 0.0092,0.0058 0.0031,0.0019 0.0062,0.0038 0.0093,0.0056 0.0031,0.0018 0.0063,0.0035 0.0095,0.0053 0.0032,0.0017 0.0064,0.0033 0.0097,0.0049 0.0033,0.0016 0.0066,0.0032 0.0099,0.0047 0.0033,0.0015 0.0067,0.003 0.01007,0.0044 0.0034,0.0014 0.0068,0.0028 0.01026,0.0041 0.0035,0.0013 0.007,0.0026 0.01047,0.0038 0.0035,0.0012 0.0071,0.0024 0.01066,0.0034 0.0036,0.0011 0.0072,0.0022 0.01085,0.0031 0.0037,9.7e-4 0.0074,0.0019 0.01107,0.0027 0.0037,8.56e-4 0.0075,0.0016 0.01128,0.0024 0.0038,7.39e-4 0.0077,0.0014 0.01149,0.002 0.0039,6.19e-4 0.0078,0.0012 0.0117,0.0017 0.0039,4.76e-4 0.0079,9.22e-4 0.01192,0.0013 0.004,3.57e-4 0.0081,7.08e-4 0.01211,9.58e-4 0.0041,2.38e-4 0.0082,4.16e-4 0.01234,5.95e-4 0.0042,1.19e-4 0.0084,1.78e-4 0.01256,1.78e-4 h 4.56215 c -0.0042,0 -0.0085,-4.6e-5 -0.01256,-1.78e-4 -0.0042,-1.18e-4 -0.0083,-2.98e-4 -0.01234,-5.95e-4 -0.0041,-2.38e-4 -0.0081,-5.36e-4 -0.01211,-9.58e-4 -0.004,-3.57e-4 -0.008,-8.03e-4 -0.01192,-0.0013 -0.0039,-4.76e-4 -0.0079,-0.0011 -0.0117,-0.0017 -0.0039,-6.24e-4 -0.0077,-0.0013 -0.01149,-0.002 -0.0038,-7.37e-4 -0.0076,-0.0015 -0.01128,-0.0024 -0.0037,-8.51e-4 -0.0074,-0.0017 -0.01107,-0.0027 -0.0037,-9.7e-4 -0.0073,-0.002 -0.01085,-0.0031 -0.0036,-0.0011 -0.0072,-0.0023 -0.01066,-0.0034 -0.0035,-0.0012 -0.007,-0.0025 -0.01047,-0.0038 -0.0035,-0.0013 -0.0069,-0.0027 -0.01026,-0.0041 -0.0034,-0.0014 -0.0068,-0.0029 -0.01007,-0.0044 -0.0033,-0.0015 -0.0066,-0.0031 -0.0099,-0.0047 -0.0033,-0.0016 -0.0065,-0.0032 -0.0097,-0.0049 -0.0032,-0.0017 -0.0064,-0.0034 -0.0095,-0.0053 -0.0031,-0.0018 -0.0062,-0.0037 -0.0093,-0.0056 -0.0031,-0.0019 -0.0061,-0.0039 -0.0092,-0.0058 -0.003,-0.002 -0.006,-0.004 -0.009,-0.0061 -0.003,-0.002 -0.0059,-0.0042 -0.0088,-0.0064 -0.0029,-0.0021 -0.0058,-0.0044 -0.0086,-0.0067 -0.0028,-0.0023 -0.0056,-0.0046 -0.0084,-0.007 -0.0028,-0.0024 -0.0055,-0.0047 -0.0082,-0.0072 -0.0027,-0.0025 -0.0054,-0.0049 -0.008,-0.0074 -0.0027,-0.0025 -0.0053,-0.0051 -0.0079,-0.0076 -0.0026,-0.0026 -0.0052,-0.0053 -0.0077,-0.008 -0.0025,-0.0027 -0.0051,-0.0054 -0.0076,-0.0082 -0.0025,-0.0028 -0.0049,-0.0055 -0.0074,-0.0084 -0.0024,-0.0028 -0.0048,-0.0057 -0.0072,-0.0086 -0.0024,-0.0029 -0.0047,-0.0058 -0.007,-0.0088 -0.0023,-0.003 -0.0046,-0.0059 -0.0069,-0.009 -0.0023,-0.003 -0.0045,-0.0061 -0.0067,-0.0092 -0.0022,-0.0031 -0.0044,-0.0062 -0.0066,-0.0093 -0.0022,-0.0031 -0.0043,-0.0063 -0.0064,-0.0096 -0.0021,-0.0032 -0.0042,-0.0064 -0.0062,-0.0098 -0.0021,-0.0033 -0.0041,-0.0066 -0.0061,-0.0099 -0.002,-0.0033 -0.004,-0.0067 -0.0059,-0.0101 -0.0019,-0.0034 -0.0039,-0.0068 -0.0058,-0.01032 -0.0019,-0.0034 -0.0038,-0.0069 -0.0056,-0.01043 -0.0019,-0.0035 -0.0037,-0.0071 -0.0055,-0.01064 -0.0018,-0.0035 -0.0036,-0.0071 -0.0054,-0.01075 -0.0018,-0.0037 -0.0035,-0.0072 -0.0052,-0.01087 -0.0017,-0.0037 -0.0034,-0.0073 -0.0051,-0.01098 -0.0017,-0.0037 -0.0033,-0.0074 -0.0049,-0.01114 -0.0016,-0.0038 -0.0032,-0.0074 -0.0048,-0.01123 -0.0016,-0.0038 -0.0031,-0.0075 -0.0047,-0.01137 -0.0015,-0.0038 -0.003,-0.0076 -0.0045,-0.01146 -0.0015,-0.0039 -0.0029,-0.0077 -0.0044,-0.01158 -0.0014,-0.0039 -0.0029,-0.0077 -0.0043,-0.01166 -0.0014,-0.0039 -0.0028,-0.0078 -0.0041,-0.01178 -0.0027,-0.0078 -0.0053,-0.01579 -0.0079,-0.02376 -0.0025,-0.008 -0.005,-0.01599 -0.0074,-0.02405 -0.0024,-0.0081 -0.0047,-0.01615 -0.0069,-0.02428 -0.0022,-0.0082 -0.0044,-0.0163 -0.0065,-0.02449 -0.0021,-0.0082 -0.0041,-0.0164 -0.006,-0.02462 -0.0019,-0.0083 -0.0038,-0.01649 -0.0056,-0.02474 -0.0018,-0.0083 -0.0035,-0.01652 -0.0052,-0.02479 -0.0017,-0.0083 -0.0033,-0.01651 -0.0048,-0.02476 -0.0015,-0.0083 -0.003,-0.01651 -0.0044,-0.02474 -0.0014,-0.0083 -0.0027,-0.01643 -0.004,-0.02462 -0.0013,-0.0082 -0.0025,-0.01636 -0.0037,-0.02449 -0.0012,-0.0082 -0.0023,-0.01625 -0.0034,-0.02431 -0.0011,-0.0081 -0.0021,-0.01609 -0.003,-0.02405 -9.48e-4,-0.008 -0.0019,-0.0159 -0.0027,-0.02376 -8.5e-4,-0.0078 -0.0017,-0.01567 -0.0024,-0.02342 -7.56e-4,-0.0077 -0.0015,-0.01542 -0.0021,-0.02303 -6.67e-4,-0.0076 -0.0013,-0.01517 -0.0019,-0.02262 -5.85e-4,-0.0074 -0.0011,-0.01483 -0.0016,-0.02212 -4.96e-4,-0.0073 -9.87e-4,-0.01447 -0.0014,-0.02157 -4.41e-4,-0.0071 -8.17e-4,-0.01412 -0.0012,-0.02102 -3.85e-4,-0.0069 -7.06e-4,-0.01368 -9.92e-4,-0.02036 -2.76e-4,-0.0061 -5.52e-4,-0.01219 -7.39e-4,-0.01814 v -0.185787 h -4.080379 z" />
    <path
       id="rect7834"
       style="fill:#666666;stroke:none;stroke-width:2;stroke-linecap:round;stroke-linejoin:round;stroke-miterlimit:4;stroke-dasharray:none;stroke-opacity:1;paint-order:stroke markers fill"
       d="m 144.48828,188.61914 a 3.2193557,3.2193557 0 0 0 -3.2207,3.21875 3.2193557,3.2193557 0 0 0 3.2207,3.2207 3.2193557,3.2193557 0 0 0 3.21875,-3.2207 3.2193557,3.2193557 0 0 0 -3.21875,-3.21875 z m -13.11133,0.0684 v 1.58984 h 5.29883 v -1.58984 z m 0,2.49219 v 1.58789 h 8.49805 v -1.58789 z m 0,2.49023 v 1.58985 h 6.41993 v -1.58985 z m 0,2.49219 V 197.75 h 8.49805 v -1.58789 z"
       transform="scale(0.26458333)" />
  </g>
</svg>
